<?xml version="1.0" encoding="UTF-8" standalone="no"?>
<!DOCTYPE svg PUBLIC "-//W3C//DTD SVG 1.1//EN" "http://www.w3.org/Graphics/SVG/1.1/DTD/svg11.dtd">
<svg width="100%" height="100%" viewBox="0 0 317 380" version="1.1" xmlns="http://www.w3.org/2000/svg" xmlns:xlink="http://www.w3.org/1999/xlink" xml:space="preserve" xmlns:serif="http://www.serif.com/" style="fill-rule:evenodd;clip-rule:evenodd;stroke-linejoin:round;stroke-miterlimit:2;">
    <defs>
        <style>
            @import url('https://fonts.googleapis.com/css2?family=JetBrains+Mono:wght@500&amp;display=swap');
            .logo-text { font-family: 'JetBrains Mono', monospace; font-size: 36px; font-weight: 500; fill: rgb(224,222,244); text-anchor: middle; }
        </style>
    </defs>
    <g transform="matrix(1,0,0,1,-35.917861,-483.662082)">
        <g transform="matrix(1,0,0,1,0,441.294848)">
            <g transform="matrix(2.631266,0,0,2.600643,-317.140351,-356.595763)">
                <path d="M140.378,275.999L143.656,174.845C143.774,172.66 143.833,171.302 143.833,170.77C143.833,165.751 140.615,163.241 134.178,163.241L137.19,153.409L188.298,153.409L185.287,163.241C179.913,163.241 176.4,164.039 174.746,165.633C173.093,167.227 172.148,171.184 171.912,177.502L169.609,243.935L213.277,181.222C216.348,176.735 217.883,173.191 217.883,170.593C217.883,168.645 216.894,166.932 214.916,165.456C212.937,163.98 210.265,163.241 206.899,163.241L204.685,163.241L207.697,153.409L254.465,153.409L251.542,163.241C246.286,163.359 241.71,164.865 237.813,167.759C233.915,170.652 228.63,176.794 221.957,186.183L158.714,275.999L140.378,275.999Z" style="fill:rgb(224,222,244);fill-rule:nonzero;"/>
            </g>
            <g transform="matrix(1.740079,0,-0.240372,1.199533,-137.411133,-14.95078)">
                <path d="M258.867,210.424C270.725,224.031 288.197,251.204 288.197,284.102C288.197,301.873 276.466,313.564 262.016,313.564C247.567,313.564 235.836,300.365 235.836,284.102C235.836,251.368 258.544,249.732 258.867,210.424Z" style="fill:rgb(246,193,119);"/>
            </g>
        </g>
    </g>
    <text class="logo-text" x="158.5" y="355">charvim</text>
</svg>
